<?xml version="1.0" encoding="UTF-8"?>
<svg id="Layer_1" data-name="Layer 1" xmlns="http://www.w3.org/2000/svg" viewBox="0 0 386.74 225.85">
  <defs>
    <style>
      .cls-1 {
        fill: #04131c;
      }

      .cls-2 {
        fill: #aaa;
      }
    </style>
  </defs>
  <path class="cls-1" d="M366.17,41.88c-3.58-8.37-8.01-14.28-10.35-17.07-8.82-10.53-19.68-16.72-26.9-18.99-2.33-.73-7.28-2.06-11-2.35l-1.62-.13-3.54-.28-2.16-.07-1.92-.06-2.88-.05h-71.44l1.48,1.98,3.72,4.97,25.25,33.7.91,1.24.37.51h2.18c6.97.04,13.95.06,20.95.06,4.81,0,9.62,0,14.44-.03h2.24c2.54.09,5.06.61,7.45,1.55,1.31.52,4.67,2.05,7.69,5.07,6.35,6.36,6.83,14.8,6.82,17.24-.01,2.95-.63,8.73-4.58,14.31-1.28,1.82-4.83,6.27-10.01,8.23-3.43,1.29-7.45,1.45-7.49,1.46-.3.01-.58.02-.83.02-.42,0-.76-.01-.98-.02l-23.77-.11-23.49-.1h-1.16l-.08,1.15-.21,2.89c-.36,4.92-.97,9.87-1.81,14.7-1.05,6.11-2.48,12.22-4.25,18.17l-1.19,3.98-.48,1.59h41.61s20.69,0,20.69,0c6.81-.47,30.03-3.56,46.75-23.51,2.57-3.07,15.39-19.53,15.38-42.76,0-5.14-.75-15.53-5.79-27.29h0ZM249.31,133.79l-.05.41h-.07l.12-.41h0Z"/>
  <path class="cls-1" d="M383.66,137.17c-1.34-3.65-3.16-7.31-3.23-7.46-1.82-3.67-3.69-6.7-4.58-8.16-.51-.83-.95-1.51-1.25-1.98l-2.37-3.66-.98-1.52-1.06,1.47c-2.81,3.88-5.94,7.53-9.33,10.84-2.26,2.21-5.36,5.24-10,8.3-3.56,2.34-7.39,4.29-11.39,5.8l-1.51.57.94,1.31c1.63,2.27,2.73,4.76,3.26,7.42.56,2.83.32,5.11.12,6.95-.32,2.94-1.11,5.98-2.22,8.55-1.27,2.93-4.25,9.8-11.31,12.85-2.14.93-4.46,1.42-6.9,1.47h-100.91l-.37.44c-.26.31-.65.77-1.13,1.32-3.43,3.95-11.47,13.19-23.34,21.29-6.62,4.51-12.15,7.12-19.16,10.43-4.81,2.27-9.77,4.36-14.73,6.21l-6.44,2.4h169.11c1.56,0,3.13-.07,4.69-.21,26.56-2.41,43.01-24.56,44.8-27.08,3.68-5.18,10.1-16.11,11.79-31.13l.03-.27c.54-4.79,1.67-14.77-2.52-26.13v-.02Z"/>
  <path class="cls-1" d="M276.04,80.19C257.27,53.49,238.5,26.79,219.73.1c-20.75,26.7-41.5,53.39-62.25,80.09h32.37v.99c.23,4.77.19,11.61-1.16,19.82,0,0-.24,1.45-.51,2.86-3.29,16.75-12.37,31.16-12.37,31.16-6.71,10.65-13.93,17.12-19.36,21.91-8.04,7.09-15.1,11.38-24.12,16.87-5.54,3.36-11.47,6.69-20.55,11.29-11.02,5.57-32.54,16.36-61.81,26.57-12.35,4.31-22.64,7.32-28.66,9-6.99,1.96-13.11,3.5-18.07,4.68,11.39.13,22.79.25,34.18.38,3.19.04,6.39.09,9.58.13h3.3c6.28,0,8.09,0,10.57-.17,3.3,0,15.03-.49,26.92-1.82,12.05-1.32,34.51-3.96,61.1-14.2,11.39-4.46,22.62-10.07,33.19-16.51,3.3-2.15,31.54-21.14,46.24-47.39,7.93-14.2,11.56-27.25,13.21-35.5,1.82-9.08,2.31-17.34,2.31-22.62,0-2.31,0-4.79-.17-7.27,10.79-.06,21.58-.11,32.37-.17h0Z"/>
  <path class="cls-1" d="M193.34,11.97l-3.87-1.56c-12.18-4.9-25.64-7.44-40.01-7.55h-.55c-29.22,0-66.87,0-95.8-.02h-5.92l-.23.94-6.48,25.94-6.31,25.26-.39,1.54h8.1c29.58,0,67.61,0,97.38.02,5.35.04,10.54.76,15.44,2.13l1.97.56.79.22.51-.65,1.28-1.62,31.98-40.03,2.61-3.26,1.04-1.3s-1.54-.62-1.54-.62Z"/>
  <path class="cls-1" d="M68.07,177.99c8.69-36.32,17.37-72.63,26.06-108.95h-55.65C25.62,120.97,12.76,172.91-.1,224.84c23.08-6.18,48.7-14.57,75.9-26.07,17.47-7.38,33.47-15.16,47.99-22.94-18.58.72-37.15,1.44-55.73,2.16h0Z"/>
  <path class="cls-2" d="M147.91,163.74c-11.33,11.37-22.12,20.06-30.99,26.49-2.89,2.09-14.95,10.73-32.36,19.94-12.91,6.83-24.83,11.89-35.01,15.66-15.44-.17-30.87-.34-46.31-.51,22.87-5.36,49.94-13.56,79.22-26.37,25.71-11.25,47.53-23.61,65.45-35.21h0Z"/>
</svg>